<svg xmlns="http://www.w3.org/2000/svg" viewBox="0 0 260 330">
  <title>Editable pseudo-3D character stage</title>
  <g id="chair-base-layer" fill="#3b2b28">
    <path d="M124 214 L139 214 L146 282 L116 282 Z" />
    <circle cx="130" cy="287" r="13" />
  </g>
  <g id="chair-back-layer">
    <path d="M65 77 C77 29 184 27 197 78 C208 119 191 171 171 190 C149 208 105 207 86 190 C66 171 54 118 65 77 Z" fill="#74452f" />
    <path d="M82 84 C95 55 164 51 181 84 C191 110 181 151 164 169 C145 186 113 185 96 168 C80 150 71 110 82 84 Z" fill="#9a6040" opacity=".7" />
  </g>
  <g id="seat-cushion-layer">
    <ellipse cx="130" cy="206" rx="77" ry="37" fill="#70422e" />
    <ellipse cx="130" cy="199" rx="68" ry="27" fill="#9a6040" />
  </g>
  <g id="legs-layer" fill="none" stroke-linecap="round">
    <path d="M104 207 C91 232 87 254 74 275" stroke="#c2a076" stroke-width="18" />
    <path d="M148 209 C165 229 177 248 193 263" stroke="#c2a076" stroke-width="18" />
  </g>
  <g id="torso-layer">
    <path d="M96 128 C111 112 153 112 166 128 C177 145 174 185 160 202 C145 213 112 213 98 202 C84 185 84 146 96 128 Z" fill="#2f75d6" />
  </g>
  <g id="arms-layer" fill="none" stroke="#8b4f36" stroke-width="13" stroke-linecap="round">
    <path d="M99 148 C79 159 71 176 72 194" />
    <path d="M162 148 C181 160 187 178 185 196" />
  </g>
  <g id="book-layer">
    <path d="M98 180 L132 173 L166 183 L130 195 Z" fill="#f2ddb5" />
  </g>
  <g id="head-layer">
    <path d="M101 89 C102 65 119 49 138 51 C158 53 173 70 170 94 C167 119 154 130 134 129 C113 128 100 113 101 89 Z" fill="#8a4d32" />
    <path d="M103 81 C109 56 143 42 165 67 C154 62 139 65 126 73 C117 78 110 81 103 81 Z" fill="#151515" />
  </g>
  <g id="headphones-layer" fill="none" stroke="#111827" stroke-linecap="round">
    <path d="M104 89 C101 68 115 50 136 49 C158 48 174 66 172 88" stroke-width="6" />
  </g>
</svg>
